<svg width="60" height="60" viewBox="0 0 60 60" fill="none" xmlns="http://www.w3.org/2000/svg">
<path fill-rule="evenodd" clip-rule="evenodd" d="M0 6.00877C0 2.69022 2.69022 0 6.00877 0C9.32733 0 12.0175 2.69022 12.0175 6.00877V47.9825L53.9912 47.9825C57.3098 47.9825 60 50.6727 60 53.9913C60 57.3098 57.3098 60.0001 53.9912 60.0001L6.00877 60C2.69022 60 0 57.3098 0 53.9913V53.9912V6.00877ZM26.3598 0C23.0412 0 20.351 2.69023 20.351 6.00878V32.9852L20.3509 33.0263C20.3509 35.2966 21.61 37.2728 23.468 38.2947C23.9864 38.5799 24.5515 38.7908 25.1488 38.913C25.54 38.9931 25.945 39.0351 26.3598 39.0351L26.3835 39.035H53.9912C57.3098 39.035 60 36.3448 60 33.0263C60 29.7077 57.3098 27.0175 53.9912 27.0175L32.3686 27.0175V6.00877C32.3686 2.69022 29.6783 0 26.3598 0ZM60 9.51755C60 4.26115 55.7389 0 50.4825 0C45.2261 0 40.9649 4.26115 40.9649 9.51754V9.95614C40.9649 15.2125 45.2261 19.4737 50.4825 19.4737C55.7388 19.4737 60 15.2125 60 9.95614V9.51755Z" fill="url(#paint0_linear_132_64)"/>
<defs>
<linearGradient id="paint0_linear_132_64" x1="57.193" y1="2.45628e-06" x2="-2.01754" y2="62.9386" gradientUnits="userSpaceOnUse">
<stop stop-color="#32F3AE"/>
<stop offset="1" stop-color="#00E0FF"/>
</linearGradient>
</defs>
</svg>
